<mxfile host="app.diagrams.net" modified="2024-02-04T13:23:27.538Z" agent="Mozilla/5.0 (Windows NT 10.0; Win64; x64) AppleWebKit/537.36 (KHTML, like Gecko) Chrome/121.0.0.0 Safari/537.36" etag="l5rwyoAn6tzZ8NLdGnJX" version="23.1.1" type="github">
  <diagram name="第 1 页" id="5I5JVCyBuz6AVrTEnks-">
    <mxGraphModel dx="1621" dy="458" grid="1" gridSize="10" guides="1" tooltips="1" connect="1" arrows="1" fold="1" page="1" pageScale="1" pageWidth="827" pageHeight="1169" math="0" shadow="0">
      <root>
        <mxCell id="0" />
        <mxCell id="1" parent="0" />
        <mxCell id="8piuVyD0YSJCnga_u1Kc-1" value="StartAnimationCueEvent" style="rounded=0;whiteSpace=wrap;html=1;" parent="1" vertex="1">
          <mxGeometry x="-80" y="210" width="120" height="60" as="geometry" />
        </mxCell>
        <mxCell id="8piuVyD0YSJCnga_u1Kc-2" value="AnimationCueTickEvent" style="rounded=0;whiteSpace=wrap;html=1;" parent="1" vertex="1">
          <mxGeometry x="-80" y="330" width="120" height="60" as="geometry" />
        </mxCell>
        <mxCell id="8piuVyD0YSJCnga_u1Kc-3" value="EndAnimationCueEvent" style="rounded=0;whiteSpace=wrap;html=1;" parent="1" vertex="1">
          <mxGeometry x="-80" y="440" width="120" height="60" as="geometry" />
        </mxCell>
        <mxCell id="TOFfPicSOjqHR6vJt6KT-1" value="actor" style="rounded=0;whiteSpace=wrap;html=1;" vertex="1" parent="1">
          <mxGeometry x="-340" y="58" width="120" height="60" as="geometry" />
        </mxCell>
        <mxCell id="TOFfPicSOjqHR6vJt6KT-2" value="mapper" style="rounded=0;whiteSpace=wrap;html=1;" vertex="1" parent="1">
          <mxGeometry x="-340" y="160" width="120" height="60" as="geometry" />
        </mxCell>
        <mxCell id="TOFfPicSOjqHR6vJt6KT-3" value="render" style="rounded=0;whiteSpace=wrap;html=1;" vertex="1" parent="1">
          <mxGeometry x="-340" y="260" width="120" height="60" as="geometry" />
        </mxCell>
        <mxCell id="TOFfPicSOjqHR6vJt6KT-4" value="cue" style="rounded=0;whiteSpace=wrap;html=1;" vertex="1" parent="1">
          <mxGeometry x="-90" y="58" width="120" height="60" as="geometry" />
        </mxCell>
        <mxCell id="TOFfPicSOjqHR6vJt6KT-7" value="scene" style="rounded=0;whiteSpace=wrap;html=1;" vertex="1" parent="1">
          <mxGeometry x="160" y="58" width="120" height="60" as="geometry" />
        </mxCell>
        <mxCell id="TOFfPicSOjqHR6vJt6KT-9" value="" style="endArrow=classic;html=1;rounded=0;entryX=1;entryY=0.5;entryDx=0;entryDy=0;exitX=0;exitY=0.5;exitDx=0;exitDy=0;" edge="1" parent="1" source="TOFfPicSOjqHR6vJt6KT-4" target="TOFfPicSOjqHR6vJt6KT-1">
          <mxGeometry relative="1" as="geometry">
            <mxPoint x="-210" y="100" as="sourcePoint" />
            <mxPoint x="-110" y="100" as="targetPoint" />
          </mxGeometry>
        </mxCell>
        <mxCell id="TOFfPicSOjqHR6vJt6KT-10" value="AddActor()" style="edgeLabel;resizable=0;html=1;align=center;verticalAlign=middle;" connectable="0" vertex="1" parent="TOFfPicSOjqHR6vJt6KT-9">
          <mxGeometry relative="1" as="geometry" />
        </mxCell>
        <mxCell id="TOFfPicSOjqHR6vJt6KT-11" value="AddCue()" style="endArrow=classic;html=1;rounded=0;entryX=1;entryY=0.5;entryDx=0;entryDy=0;exitX=0;exitY=0.5;exitDx=0;exitDy=0;" edge="1" parent="1" source="TOFfPicSOjqHR6vJt6KT-7" target="TOFfPicSOjqHR6vJt6KT-4">
          <mxGeometry relative="1" as="geometry">
            <mxPoint x="120" y="20" as="sourcePoint" />
            <mxPoint x="220" y="20" as="targetPoint" />
          </mxGeometry>
        </mxCell>
        <mxCell id="TOFfPicSOjqHR6vJt6KT-13" value="" style="endArrow=classic;html=1;rounded=0;entryX=0.5;entryY=0;entryDx=0;entryDy=0;" edge="1" parent="1" source="TOFfPicSOjqHR6vJt6KT-1" target="TOFfPicSOjqHR6vJt6KT-2">
          <mxGeometry width="50" height="50" relative="1" as="geometry">
            <mxPoint x="-280" y="120" as="sourcePoint" />
            <mxPoint x="60" y="90" as="targetPoint" />
          </mxGeometry>
        </mxCell>
        <mxCell id="TOFfPicSOjqHR6vJt6KT-14" value="" style="endArrow=classic;html=1;rounded=0;entryX=0.5;entryY=0;entryDx=0;entryDy=0;exitX=0.5;exitY=1;exitDx=0;exitDy=0;" edge="1" parent="1" source="TOFfPicSOjqHR6vJt6KT-2" target="TOFfPicSOjqHR6vJt6KT-3">
          <mxGeometry width="50" height="50" relative="1" as="geometry">
            <mxPoint x="-150" y="280" as="sourcePoint" />
            <mxPoint x="-100" y="230" as="targetPoint" />
          </mxGeometry>
        </mxCell>
        <mxCell id="TOFfPicSOjqHR6vJt6KT-15" value="scene-&amp;gt;starttime" style="rounded=0;whiteSpace=wrap;html=1;" vertex="1" parent="1">
          <mxGeometry x="160" y="200" width="120" height="60" as="geometry" />
        </mxCell>
        <mxCell id="TOFfPicSOjqHR6vJt6KT-17" value="" style="endArrow=classic;html=1;rounded=0;exitX=0.5;exitY=1;exitDx=0;exitDy=0;entryX=0.5;entryY=0;entryDx=0;entryDy=0;" edge="1" parent="1" source="TOFfPicSOjqHR6vJt6KT-7" target="TOFfPicSOjqHR6vJt6KT-15">
          <mxGeometry relative="1" as="geometry">
            <mxPoint x="310" y="170" as="sourcePoint" />
            <mxPoint x="410" y="170" as="targetPoint" />
          </mxGeometry>
        </mxCell>
        <mxCell id="TOFfPicSOjqHR6vJt6KT-18" value="Play()" style="edgeLabel;resizable=0;html=1;align=center;verticalAlign=middle;" connectable="0" vertex="1" parent="TOFfPicSOjqHR6vJt6KT-17">
          <mxGeometry relative="1" as="geometry" />
        </mxCell>
        <mxCell id="TOFfPicSOjqHR6vJt6KT-22" value="UNINITIALIZED" style="ellipse;whiteSpace=wrap;html=1;" vertex="1" parent="1">
          <mxGeometry x="40" y="130" width="90" height="62" as="geometry" />
        </mxCell>
        <mxCell id="TOFfPicSOjqHR6vJt6KT-23" value="" style="endArrow=classic;html=1;rounded=0;exitX=0.421;exitY=1;exitDx=0;exitDy=0;exitPerimeter=0;entryX=0;entryY=0.5;entryDx=0;entryDy=0;" edge="1" parent="1" source="TOFfPicSOjqHR6vJt6KT-4" target="TOFfPicSOjqHR6vJt6KT-22">
          <mxGeometry width="50" height="50" relative="1" as="geometry">
            <mxPoint x="-60" y="180" as="sourcePoint" />
            <mxPoint x="-10" y="130" as="targetPoint" />
          </mxGeometry>
        </mxCell>
        <mxCell id="TOFfPicSOjqHR6vJt6KT-24" value="" style="endArrow=classic;html=1;rounded=0;entryX=0;entryY=0.5;entryDx=0;entryDy=0;" edge="1" parent="1" source="TOFfPicSOjqHR6vJt6KT-22" target="TOFfPicSOjqHR6vJt6KT-15">
          <mxGeometry width="50" height="50" relative="1" as="geometry">
            <mxPoint x="120" y="400" as="sourcePoint" />
            <mxPoint x="170" y="350" as="targetPoint" />
          </mxGeometry>
        </mxCell>
        <mxCell id="TOFfPicSOjqHR6vJt6KT-25" value="ACTIVE" style="ellipse;whiteSpace=wrap;html=1;aspect=fixed;" vertex="1" parent="1">
          <mxGeometry x="70" y="260" width="70" height="70" as="geometry" />
        </mxCell>
        <mxCell id="TOFfPicSOjqHR6vJt6KT-26" value="INACTIVE" style="ellipse;whiteSpace=wrap;html=1;aspect=fixed;" vertex="1" parent="1">
          <mxGeometry x="70" y="430" width="80" height="80" as="geometry" />
        </mxCell>
        <mxCell id="TOFfPicSOjqHR6vJt6KT-27" value="" style="endArrow=classic;html=1;rounded=0;exitX=1;exitY=0.75;exitDx=0;exitDy=0;" edge="1" parent="1" source="8piuVyD0YSJCnga_u1Kc-1" target="TOFfPicSOjqHR6vJt6KT-25">
          <mxGeometry width="50" height="50" relative="1" as="geometry">
            <mxPoint x="250" y="350" as="sourcePoint" />
            <mxPoint x="300" y="300" as="targetPoint" />
          </mxGeometry>
        </mxCell>
        <mxCell id="TOFfPicSOjqHR6vJt6KT-28" value="" style="endArrow=classic;html=1;rounded=0;exitX=1;exitY=0.5;exitDx=0;exitDy=0;entryX=0.286;entryY=0.986;entryDx=0;entryDy=0;entryPerimeter=0;" edge="1" parent="1" source="8piuVyD0YSJCnga_u1Kc-2" target="TOFfPicSOjqHR6vJt6KT-25">
          <mxGeometry width="50" height="50" relative="1" as="geometry">
            <mxPoint x="40" y="370" as="sourcePoint" />
            <mxPoint x="90" y="320" as="targetPoint" />
          </mxGeometry>
        </mxCell>
        <mxCell id="TOFfPicSOjqHR6vJt6KT-29" value="" style="endArrow=classic;html=1;rounded=0;exitX=1;exitY=0.75;exitDx=0;exitDy=0;entryX=0.125;entryY=0.688;entryDx=0;entryDy=0;entryPerimeter=0;" edge="1" parent="1" source="8piuVyD0YSJCnga_u1Kc-3" target="TOFfPicSOjqHR6vJt6KT-26">
          <mxGeometry width="50" height="50" relative="1" as="geometry">
            <mxPoint x="140" y="400" as="sourcePoint" />
            <mxPoint x="190" y="350" as="targetPoint" />
          </mxGeometry>
        </mxCell>
        <mxCell id="TOFfPicSOjqHR6vJt6KT-30" value="scene-&amp;gt;endtime" style="rounded=0;whiteSpace=wrap;html=1;" vertex="1" parent="1">
          <mxGeometry x="160" y="440" width="120" height="60" as="geometry" />
        </mxCell>
        <mxCell id="TOFfPicSOjqHR6vJt6KT-31" value="" style="endArrow=classic;html=1;rounded=0;exitX=0.5;exitY=1;exitDx=0;exitDy=0;entryX=0.5;entryY=0;entryDx=0;entryDy=0;" edge="1" parent="1" source="TOFfPicSOjqHR6vJt6KT-15" target="TOFfPicSOjqHR6vJt6KT-30">
          <mxGeometry relative="1" as="geometry">
            <mxPoint x="290" y="310" as="sourcePoint" />
            <mxPoint x="390" y="310" as="targetPoint" />
          </mxGeometry>
        </mxCell>
        <mxCell id="TOFfPicSOjqHR6vJt6KT-32" value="Stop()" style="edgeLabel;resizable=0;html=1;align=center;verticalAlign=middle;" connectable="0" vertex="1" parent="TOFfPicSOjqHR6vJt6KT-31">
          <mxGeometry relative="1" as="geometry" />
        </mxCell>
        <mxCell id="TOFfPicSOjqHR6vJt6KT-34" value="" style="endArrow=classic;html=1;rounded=0;entryX=0.5;entryY=0;entryDx=0;entryDy=0;" edge="1" parent="1" source="TOFfPicSOjqHR6vJt6KT-22" target="8piuVyD0YSJCnga_u1Kc-1">
          <mxGeometry width="50" height="50" relative="1" as="geometry">
            <mxPoint x="-190" y="220" as="sourcePoint" />
            <mxPoint x="-140" y="170" as="targetPoint" />
          </mxGeometry>
        </mxCell>
      </root>
    </mxGraphModel>
  </diagram>
</mxfile>
